<svg xmlns="http://www.w3.org/2000/svg" viewBox="0 0 1024 1024" fill="#e42527"><path d="M1015.41 971.6l-120.6-120.39c37.19-41.82 67.02-89.04 88.84-140.72 26.6-63 40.09-129.89 40.09-198.82 0-69.04-13.53-136.03-40.21-199.11-25.76-60.91-62.64-115.61-109.61-162.58-46.96-46.97-101.66-83.84-162.58-109.61C648.27 13.69 581.28.17 512.24.17S376.21 13.7 313.13 40.38c-60.91 25.76-115.61 62.64-162.58 109.61S66.71 251.65 40.94 312.57C14.27 375.64.74 442.63.74 511.67s13.53 136.03 40.21 199.1c25.76 60.91 62.64 115.61 109.61 162.58s101.66 83.84 162.58 109.61c63.08 26.68 130.07 40.21 199.13 40.21l481.98-.33a30.03 30.03 0 0 0 27.71-18.54c4.61-11.22 2.04-24.13-6.55-32.7zm-503.17-8.43c-60.97 0-120.09-11.93-175.73-35.47-53.76-22.74-102.05-55.3-143.52-96.77s-74.03-89.76-96.77-143.52c-23.54-55.64-35.47-114.77-35.47-175.73s11.93-120.09 35.47-175.73c22.74-53.76 55.3-102.05 96.77-143.52 41.47-41.48 89.76-74.03 143.52-96.77 55.64-23.54 114.77-35.47 175.73-35.47s120.09 11.93 175.73 35.47c53.76 22.74 102.05 55.3 143.52 96.77s74.03 89.76 96.77 143.52c23.54 55.64 35.47 114.77 35.47 175.73 0 60.87-11.9 119.91-35.36 175.48-18.8 44.53-44.34 85.31-76.11 121.58L584.75 541.67h39.84c16.57 0 30-13.43 30-30s-13.43-30-30-30H512.72c-.08 0-.16.01-.25.01-7.76-.06-15.54 2.87-21.46 8.8-7.2 7.21-9.96 17.17-8.29 26.5v106.57c0 16.57 13.43 30 30 30s30-13.43 30-30v-39.06l379.04 378.4-409.52.28zm.24-249.77c-111.23 0-201.73-90.5-201.73-201.73s90.5-201.73 201.73-201.73 201.73 90.5 201.73 201.73c0 17.5-2.24 34.87-6.65 51.61-4.23 16.02 5.34 32.43 21.36 36.66 16.03 4.23 32.43-5.34 36.66-21.36 5.73-21.74 8.64-44.25 8.64-66.91 0-69.91-27.22-135.64-76.66-185.07-49.43-49.43-115.16-76.66-185.07-76.66s-135.64 27.22-185.07 76.66-76.66 115.16-76.66 185.07 27.22 135.64 76.66 185.07c49.43 49.43 115.16 76.66 185.07 76.66 23.56 0 46.92-3.14 69.45-9.32 15.98-4.39 25.37-20.9 20.99-36.87-4.39-15.98-20.9-25.37-36.87-20.99-17.37 4.76-35.39 7.18-53.58 7.18z"/></svg>